<?xml version="1.0" encoding="iso-8859-1"?>
<!-- Uploaded to: SVG Repo, www.svgrepo.com, Generator: SVG Repo Mixer Tools -->
<svg version="1.1" id="Layer_1" xmlns="http://www.w3.org/2000/svg" xmlns:xlink="http://www.w3.org/1999/xlink" 
	 viewBox="0 0 512.001 512.001" xml:space="preserve">
<rect x="96.456" y="294.583" style="fill:#F4A026;" width="46.925" height="162.672"/>
<rect x="190.306" y="236.532" style="fill:#61ACD2;" width="46.925" height="220.723"/>
<rect x="284.155" y="322.039" style="fill:#30A987;" width="46.925" height="135.216"/>
<rect x="378.004" y="122.525" style="fill:#E46A53;" width="46.925" height="334.729"/>
<g>
	<path style="fill:#231F20;" d="M508.401,449.374l-39.104-33.89c-4.353-3.772-10.938-3.301-14.709,1.051
		c-3.772,4.352-3.301,10.938,1.051,14.709l17.979,15.582h-38.262V122.525c0-5.759-4.668-10.428-10.428-10.428h-46.925
		c-5.759,0-10.428,4.668-10.428,10.428v324.301h-26.069V322.043c0-5.759-4.668-10.428-10.428-10.428h-46.925
		c-5.759,0-10.428,4.668-10.428,10.428v124.784h-26.069V236.536c0-5.759-4.668-10.428-10.428-10.428h-46.925
		c-5.759,0-10.428,4.668-10.428,10.428v210.291h-26.069V294.583c0-5.759-4.668-10.428-10.428-10.428H96.456
		c-5.759,0-10.428,4.668-10.428,10.428v152.244H59.959V46.723l15.582,17.98c2.063,2.38,4.965,3.599,7.884,3.599
		c2.42,0,4.852-0.838,6.825-2.547c4.351-3.772,4.823-10.358,1.05-14.709l-33.89-39.104c-0.053-0.06-0.102-0.109-0.154-0.166
		c-1.097-1.212-2.481-2.177-4.081-2.775c-4.077-1.521-8.673-0.349-11.525,2.941L7.76,51.046c-3.771,4.35-3.3,10.937,1.052,14.709
		c4.353,3.773,10.938,3.301,14.709-1.051l15.582-17.979v400.102H10.428C4.668,446.827,0,451.495,0,457.255
		c0,5.759,4.668,10.428,10.428,10.428h28.676v25.548c0,5.759,4.668,10.428,10.428,10.428s10.428-4.668,10.428-10.428v-25.548h413.66
		l-17.979,15.582c-4.351,3.772-4.823,10.358-1.05,14.709c2.063,2.38,4.965,3.599,7.884,3.599c2.42,0,4.852-0.838,6.825-2.547
		l39.104-33.89c0.083-0.072,0.392-0.362,0.406-0.375c1.1-1.059,1.977-2.366,2.535-3.86
		C512.865,456.821,511.691,452.226,508.401,449.374z M106.884,446.827V305.01h26.069v141.817H106.884z M200.733,446.827V246.963
		h26.069v199.864H200.733z M294.582,446.827V332.471h26.069v114.356H294.582z M388.432,446.827V132.953h26.069v313.874H388.432z"/>
	<path style="fill:#231F20;" d="M311.209,52.265l24.445,5.133L92.257,218.808c-4.8,3.183-6.11,9.654-2.927,14.454
		c2.007,3.026,5.321,4.665,8.7,4.665c1.979,0,3.98-0.563,5.754-1.738L346.759,75.058l-5.028,23.948
		c-1.184,5.636,2.427,11.165,8.063,12.347c5.632,1.184,11.165-2.427,12.347-8.063l10.254-48.836c0.87-4.141-0.849-8.396-4.35-10.772
		c-0.954-0.648-1.993-1.104-3.065-1.401c-0.194-0.064-0.402-0.123-0.647-0.174l-48.836-10.254
		c-5.634-1.186-11.165,2.427-12.347,8.063C301.964,45.552,305.573,51.081,311.209,52.265z"/>
</g>
</svg>